<mxfile host="app.diagrams.net" modified="2023-09-21T13:48:37.900Z" agent="Mozilla/5.0 (X11; Linux x86_64) AppleWebKit/537.36 (KHTML, like Gecko) Chrome/115.0.0.0 Safari/537.36" etag="hswT8P7eALQrCTVa5XzM" version="21.7.5" type="github">
  <diagram name="Page-1" id="G8oqICroImFP98PP0jhe">
    <mxGraphModel dx="1386" dy="2571" grid="0" gridSize="10" guides="1" tooltips="1" connect="1" arrows="1" fold="1" page="1" pageScale="1" pageWidth="1600" pageHeight="900" math="0" shadow="0">
      <root>
        <mxCell id="0" />
        <mxCell id="1" parent="0" />
        <mxCell id="Exh0e0-sqE-Pdp7wsRko-1" value="Animal" style="swimlane;fontStyle=1;align=center;verticalAlign=top;childLayout=stackLayout;horizontal=1;startSize=26;horizontalStack=0;resizeParent=1;resizeParentMax=0;resizeLast=0;collapsible=1;marginBottom=0;whiteSpace=wrap;html=1;" parent="1" vertex="1">
          <mxGeometry x="154" y="-562" width="182" height="165" as="geometry">
            <mxRectangle x="134" y="-567" width="75" height="26" as="alternateBounds" />
          </mxGeometry>
        </mxCell>
        <mxCell id="Exh0e0-sqE-Pdp7wsRko-2" value="+ name : string&lt;br&gt;+ age : number&lt;br&gt;+ color : string" style="text;strokeColor=none;fillColor=none;align=left;verticalAlign=top;spacingLeft=4;spacingRight=4;overflow=hidden;rotatable=0;points=[[0,0.5],[1,0.5]];portConstraint=eastwest;whiteSpace=wrap;html=1;" parent="Exh0e0-sqE-Pdp7wsRko-1" vertex="1">
          <mxGeometry y="26" width="182" height="69" as="geometry" />
        </mxCell>
        <mxCell id="Exh0e0-sqE-Pdp7wsRko-3" value="" style="line;strokeWidth=1;fillColor=none;align=left;verticalAlign=middle;spacingTop=-1;spacingLeft=3;spacingRight=3;rotatable=0;labelPosition=right;points=[];portConstraint=eastwest;strokeColor=inherit;" parent="Exh0e0-sqE-Pdp7wsRko-1" vertex="1">
          <mxGeometry y="95" width="182" height="8" as="geometry" />
        </mxCell>
        <mxCell id="Exh0e0-sqE-Pdp7wsRko-4" value="+ Eat()&lt;br&gt;+ Walk()" style="text;strokeColor=none;fillColor=none;align=left;verticalAlign=top;spacingLeft=4;spacingRight=4;overflow=hidden;rotatable=0;points=[[0,0.5],[1,0.5]];portConstraint=eastwest;whiteSpace=wrap;html=1;" parent="Exh0e0-sqE-Pdp7wsRko-1" vertex="1">
          <mxGeometry y="103" width="182" height="62" as="geometry" />
        </mxCell>
        <mxCell id="Exh0e0-sqE-Pdp7wsRko-5" value="User" style="swimlane;fontStyle=1;align=center;verticalAlign=top;childLayout=stackLayout;horizontal=1;startSize=26;horizontalStack=0;resizeParent=1;resizeParentMax=0;resizeLast=0;collapsible=1;marginBottom=0;whiteSpace=wrap;html=1;" parent="1" vertex="1">
          <mxGeometry x="426" y="-335" width="160" height="140" as="geometry" />
        </mxCell>
        <mxCell id="Exh0e0-sqE-Pdp7wsRko-6" value="- id : string&lt;br&gt;- passworld : string&lt;br&gt;- loginStatus : string,&lt;br&gt;- registerDate : date" style="text;strokeColor=none;fillColor=none;align=left;verticalAlign=top;spacingLeft=4;spacingRight=4;overflow=hidden;rotatable=0;points=[[0,0.5],[1,0.5]];portConstraint=eastwest;whiteSpace=wrap;html=1;" parent="Exh0e0-sqE-Pdp7wsRko-5" vertex="1">
          <mxGeometry y="26" width="160" height="82" as="geometry" />
        </mxCell>
        <mxCell id="Exh0e0-sqE-Pdp7wsRko-7" value="" style="line;strokeWidth=1;fillColor=none;align=left;verticalAlign=middle;spacingTop=-1;spacingLeft=3;spacingRight=3;rotatable=0;labelPosition=right;points=[];portConstraint=eastwest;strokeColor=inherit;" parent="Exh0e0-sqE-Pdp7wsRko-5" vertex="1">
          <mxGeometry y="108" width="160" height="8" as="geometry" />
        </mxCell>
        <mxCell id="Exh0e0-sqE-Pdp7wsRko-8" value="+ varifyLogin() : bool" style="text;strokeColor=none;fillColor=none;align=left;verticalAlign=top;spacingLeft=4;spacingRight=4;overflow=hidden;rotatable=0;points=[[0,0.5],[1,0.5]];portConstraint=eastwest;whiteSpace=wrap;html=1;" parent="Exh0e0-sqE-Pdp7wsRko-5" vertex="1">
          <mxGeometry y="116" width="160" height="24" as="geometry" />
        </mxCell>
        <mxCell id="Exh0e0-sqE-Pdp7wsRko-9" value="Administrator" style="swimlane;fontStyle=1;align=center;verticalAlign=top;childLayout=stackLayout;horizontal=1;startSize=26;horizontalStack=0;resizeParent=1;resizeParentMax=0;resizeLast=0;collapsible=1;marginBottom=0;whiteSpace=wrap;html=1;" parent="1" vertex="1">
          <mxGeometry x="649" y="-335" width="160" height="119" as="geometry" />
        </mxCell>
        <mxCell id="Exh0e0-sqE-Pdp7wsRko-10" value="+ adminName : string&lt;br&gt;- email : string" style="text;strokeColor=none;fillColor=none;align=left;verticalAlign=top;spacingLeft=4;spacingRight=4;overflow=hidden;rotatable=0;points=[[0,0.5],[1,0.5]];portConstraint=eastwest;whiteSpace=wrap;html=1;" parent="Exh0e0-sqE-Pdp7wsRko-9" vertex="1">
          <mxGeometry y="26" width="160" height="59" as="geometry" />
        </mxCell>
        <mxCell id="Exh0e0-sqE-Pdp7wsRko-11" value="" style="line;strokeWidth=1;fillColor=none;align=left;verticalAlign=middle;spacingTop=-1;spacingLeft=3;spacingRight=3;rotatable=0;labelPosition=right;points=[];portConstraint=eastwest;strokeColor=inherit;" parent="Exh0e0-sqE-Pdp7wsRko-9" vertex="1">
          <mxGeometry y="85" width="160" height="8" as="geometry" />
        </mxCell>
        <mxCell id="Exh0e0-sqE-Pdp7wsRko-12" value="+ updateCatalog() : type" style="text;strokeColor=none;fillColor=none;align=left;verticalAlign=top;spacingLeft=4;spacingRight=4;overflow=hidden;rotatable=0;points=[[0,0.5],[1,0.5]];portConstraint=eastwest;whiteSpace=wrap;html=1;" parent="Exh0e0-sqE-Pdp7wsRko-9" vertex="1">
          <mxGeometry y="93" width="160" height="26" as="geometry" />
        </mxCell>
        <mxCell id="Exh0e0-sqE-Pdp7wsRko-13" value="" style="html=1;verticalAlign=bottom;endArrow=block;curved=0;rounded=0;entryX=1.004;entryY=0.62;entryDx=0;entryDy=0;entryPerimeter=0;exitX=0.004;exitY=0.65;exitDx=0;exitDy=0;exitPerimeter=0;" parent="1" source="Exh0e0-sqE-Pdp7wsRko-10" target="Exh0e0-sqE-Pdp7wsRko-6" edge="1">
          <mxGeometry width="80" relative="1" as="geometry">
            <mxPoint x="382" y="-218" as="sourcePoint" />
            <mxPoint x="429" y="-218" as="targetPoint" />
            <Array as="points" />
          </mxGeometry>
        </mxCell>
        <mxCell id="Exh0e0-sqE-Pdp7wsRko-14" value="Assets" style="childLayout=tableLayout;recursiveResize=0;strokeColor=#98bf21;fillColor=#A7C942;shadow=1;" parent="1" vertex="1">
          <mxGeometry x="252" y="-843" width="280" height="160" as="geometry" />
        </mxCell>
        <mxCell id="Exh0e0-sqE-Pdp7wsRko-15" style="shape=tableRow;horizontal=0;startSize=0;swimlaneHead=0;swimlaneBody=0;top=0;left=0;bottom=0;right=0;dropTarget=0;collapsible=0;recursiveResize=0;expand=0;fontStyle=0;strokeColor=inherit;fillColor=#ffffff;" parent="Exh0e0-sqE-Pdp7wsRko-14" vertex="1">
          <mxGeometry width="280" height="33" as="geometry" />
        </mxCell>
        <mxCell id="Exh0e0-sqE-Pdp7wsRko-16" value="Title 1" style="connectable=0;recursiveResize=0;strokeColor=inherit;fillColor=#A7C942;align=center;fontStyle=1;fontColor=#FFFFFF;html=1;" parent="Exh0e0-sqE-Pdp7wsRko-15" vertex="1">
          <mxGeometry width="93" height="33" as="geometry">
            <mxRectangle width="93" height="33" as="alternateBounds" />
          </mxGeometry>
        </mxCell>
        <mxCell id="Exh0e0-sqE-Pdp7wsRko-17" value="Title 2" style="connectable=0;recursiveResize=0;strokeColor=inherit;fillColor=#A7C942;align=center;fontStyle=1;fontColor=#FFFFFF;html=1;" parent="Exh0e0-sqE-Pdp7wsRko-15" vertex="1">
          <mxGeometry x="93" width="94" height="33" as="geometry">
            <mxRectangle width="94" height="33" as="alternateBounds" />
          </mxGeometry>
        </mxCell>
        <mxCell id="Exh0e0-sqE-Pdp7wsRko-18" value="Title 3" style="connectable=0;recursiveResize=0;strokeColor=inherit;fillColor=#A7C942;align=center;fontStyle=1;fontColor=#FFFFFF;html=1;" parent="Exh0e0-sqE-Pdp7wsRko-15" vertex="1">
          <mxGeometry x="187" width="93" height="33" as="geometry">
            <mxRectangle width="93" height="33" as="alternateBounds" />
          </mxGeometry>
        </mxCell>
        <mxCell id="Exh0e0-sqE-Pdp7wsRko-19" value="" style="shape=tableRow;horizontal=0;startSize=0;swimlaneHead=0;swimlaneBody=0;top=0;left=0;bottom=0;right=0;dropTarget=0;collapsible=0;recursiveResize=0;expand=0;fontStyle=0;strokeColor=inherit;fillColor=#ffffff;" parent="Exh0e0-sqE-Pdp7wsRko-14" vertex="1">
          <mxGeometry y="33" width="280" height="32" as="geometry" />
        </mxCell>
        <mxCell id="Exh0e0-sqE-Pdp7wsRko-20" value="Value 1" style="connectable=0;recursiveResize=0;strokeColor=inherit;fillColor=inherit;align=center;whiteSpace=wrap;html=1;" parent="Exh0e0-sqE-Pdp7wsRko-19" vertex="1">
          <mxGeometry width="93" height="32" as="geometry">
            <mxRectangle width="93" height="32" as="alternateBounds" />
          </mxGeometry>
        </mxCell>
        <mxCell id="Exh0e0-sqE-Pdp7wsRko-21" value="Value 2" style="connectable=0;recursiveResize=0;strokeColor=inherit;fillColor=inherit;align=center;whiteSpace=wrap;html=1;" parent="Exh0e0-sqE-Pdp7wsRko-19" vertex="1">
          <mxGeometry x="93" width="94" height="32" as="geometry">
            <mxRectangle width="94" height="32" as="alternateBounds" />
          </mxGeometry>
        </mxCell>
        <mxCell id="Exh0e0-sqE-Pdp7wsRko-22" value="Value 3" style="connectable=0;recursiveResize=0;strokeColor=inherit;fillColor=inherit;align=center;whiteSpace=wrap;html=1;" parent="Exh0e0-sqE-Pdp7wsRko-19" vertex="1">
          <mxGeometry x="187" width="93" height="32" as="geometry">
            <mxRectangle width="93" height="32" as="alternateBounds" />
          </mxGeometry>
        </mxCell>
        <mxCell id="Exh0e0-sqE-Pdp7wsRko-23" value="" style="shape=tableRow;horizontal=0;startSize=0;swimlaneHead=0;swimlaneBody=0;top=0;left=0;bottom=0;right=0;dropTarget=0;collapsible=0;recursiveResize=0;expand=0;fontStyle=1;strokeColor=inherit;fillColor=#EAF2D3;" parent="Exh0e0-sqE-Pdp7wsRko-14" vertex="1">
          <mxGeometry y="65" width="280" height="31" as="geometry" />
        </mxCell>
        <mxCell id="Exh0e0-sqE-Pdp7wsRko-24" value="Value 4" style="connectable=0;recursiveResize=0;strokeColor=inherit;fillColor=inherit;whiteSpace=wrap;html=1;" parent="Exh0e0-sqE-Pdp7wsRko-23" vertex="1">
          <mxGeometry width="93" height="31" as="geometry">
            <mxRectangle width="93" height="31" as="alternateBounds" />
          </mxGeometry>
        </mxCell>
        <mxCell id="Exh0e0-sqE-Pdp7wsRko-25" value="Value 5" style="connectable=0;recursiveResize=0;strokeColor=inherit;fillColor=inherit;whiteSpace=wrap;html=1;" parent="Exh0e0-sqE-Pdp7wsRko-23" vertex="1">
          <mxGeometry x="93" width="94" height="31" as="geometry">
            <mxRectangle width="94" height="31" as="alternateBounds" />
          </mxGeometry>
        </mxCell>
        <mxCell id="Exh0e0-sqE-Pdp7wsRko-26" value="Value 6" style="connectable=0;recursiveResize=0;strokeColor=inherit;fillColor=inherit;whiteSpace=wrap;html=1;" parent="Exh0e0-sqE-Pdp7wsRko-23" vertex="1">
          <mxGeometry x="187" width="93" height="31" as="geometry">
            <mxRectangle width="93" height="31" as="alternateBounds" />
          </mxGeometry>
        </mxCell>
        <mxCell id="Exh0e0-sqE-Pdp7wsRko-27" value="" style="shape=tableRow;horizontal=0;startSize=0;swimlaneHead=0;swimlaneBody=0;top=0;left=0;bottom=0;right=0;dropTarget=0;collapsible=0;recursiveResize=0;expand=0;fontStyle=0;strokeColor=inherit;fillColor=#ffffff;" parent="Exh0e0-sqE-Pdp7wsRko-14" vertex="1">
          <mxGeometry y="96" width="280" height="33" as="geometry" />
        </mxCell>
        <mxCell id="Exh0e0-sqE-Pdp7wsRko-28" value="Value 7" style="connectable=0;recursiveResize=0;strokeColor=inherit;fillColor=inherit;fontStyle=0;align=center;whiteSpace=wrap;html=1;" parent="Exh0e0-sqE-Pdp7wsRko-27" vertex="1">
          <mxGeometry width="93" height="33" as="geometry">
            <mxRectangle width="93" height="33" as="alternateBounds" />
          </mxGeometry>
        </mxCell>
        <mxCell id="Exh0e0-sqE-Pdp7wsRko-29" value="Value 8" style="connectable=0;recursiveResize=0;strokeColor=inherit;fillColor=inherit;fontStyle=0;align=center;whiteSpace=wrap;html=1;" parent="Exh0e0-sqE-Pdp7wsRko-27" vertex="1">
          <mxGeometry x="93" width="94" height="33" as="geometry">
            <mxRectangle width="94" height="33" as="alternateBounds" />
          </mxGeometry>
        </mxCell>
        <mxCell id="Exh0e0-sqE-Pdp7wsRko-30" value="Value 9" style="connectable=0;recursiveResize=0;strokeColor=inherit;fillColor=inherit;fontStyle=0;align=center;whiteSpace=wrap;html=1;" parent="Exh0e0-sqE-Pdp7wsRko-27" vertex="1">
          <mxGeometry x="187" width="93" height="33" as="geometry">
            <mxRectangle width="93" height="33" as="alternateBounds" />
          </mxGeometry>
        </mxCell>
        <mxCell id="Exh0e0-sqE-Pdp7wsRko-31" value="" style="shape=tableRow;horizontal=0;startSize=0;swimlaneHead=0;swimlaneBody=0;top=0;left=0;bottom=0;right=0;dropTarget=0;collapsible=0;recursiveResize=0;expand=0;fontStyle=1;strokeColor=inherit;fillColor=#EAF2D3;" parent="Exh0e0-sqE-Pdp7wsRko-14" vertex="1">
          <mxGeometry y="129" width="280" height="31" as="geometry" />
        </mxCell>
        <mxCell id="Exh0e0-sqE-Pdp7wsRko-32" value="Value 10" style="connectable=0;recursiveResize=0;strokeColor=inherit;fillColor=inherit;whiteSpace=wrap;html=1;" parent="Exh0e0-sqE-Pdp7wsRko-31" vertex="1">
          <mxGeometry width="93" height="31" as="geometry">
            <mxRectangle width="93" height="31" as="alternateBounds" />
          </mxGeometry>
        </mxCell>
        <mxCell id="Exh0e0-sqE-Pdp7wsRko-33" value="Value 11" style="connectable=0;recursiveResize=0;strokeColor=inherit;fillColor=inherit;whiteSpace=wrap;html=1;" parent="Exh0e0-sqE-Pdp7wsRko-31" vertex="1">
          <mxGeometry x="93" width="94" height="31" as="geometry">
            <mxRectangle width="94" height="31" as="alternateBounds" />
          </mxGeometry>
        </mxCell>
        <mxCell id="Exh0e0-sqE-Pdp7wsRko-34" value="Value 12" style="connectable=0;recursiveResize=0;strokeColor=inherit;fillColor=inherit;whiteSpace=wrap;html=1;" parent="Exh0e0-sqE-Pdp7wsRko-31" vertex="1">
          <mxGeometry x="187" width="93" height="31" as="geometry">
            <mxRectangle width="93" height="31" as="alternateBounds" />
          </mxGeometry>
        </mxCell>
        <mxCell id="Exh0e0-sqE-Pdp7wsRko-35" value="" style="rhombus;whiteSpace=wrap;html=1;strokeWidth=2;fillWeight=-1;hachureGap=8;fillStyle=cross-hatch;fillColor=#006600;sketch=1;" parent="1" vertex="1">
          <mxGeometry x="105" y="-656" width="120" height="60" as="geometry" />
        </mxCell>
        <mxCell id="Exh0e0-sqE-Pdp7wsRko-36" value="Icon" style="icon;html=1;image=img/clipart/Gear_128x128.png" parent="1" vertex="1">
          <mxGeometry x="248" y="-667" width="12" height="60" as="geometry" />
        </mxCell>
        <mxCell id="Pxrlkx7MvBpBombPw6jG-2" value="User" style="shape=umlActor;verticalLabelPosition=bottom;verticalAlign=top;html=1;outlineConnect=0;" parent="1" vertex="1">
          <mxGeometry x="250" y="-1368" width="30" height="60" as="geometry" />
        </mxCell>
        <mxCell id="Pxrlkx7MvBpBombPw6jG-6" value="Payment" style="rounded=1;whiteSpace=wrap;html=1;" parent="1" vertex="1">
          <mxGeometry x="360" y="-1366" width="120" height="60" as="geometry" />
        </mxCell>
        <mxCell id="Pxrlkx7MvBpBombPw6jG-7" value="wallet" style="rounded=1;whiteSpace=wrap;html=1;" parent="1" vertex="1">
          <mxGeometry x="564" y="-1428" width="120" height="60" as="geometry" />
        </mxCell>
        <mxCell id="Pxrlkx7MvBpBombPw6jG-8" value="Business Wellet" style="rounded=1;whiteSpace=wrap;html=1;" parent="1" vertex="1">
          <mxGeometry x="986" y="-1363" width="120" height="60" as="geometry" />
        </mxCell>
        <mxCell id="Pxrlkx7MvBpBombPw6jG-9" value="Card" style="rounded=1;whiteSpace=wrap;html=1;" parent="1" vertex="1">
          <mxGeometry x="567" y="-1306" width="120" height="60" as="geometry" />
        </mxCell>
        <mxCell id="Pxrlkx7MvBpBombPw6jG-10" value="" style="endArrow=classic;html=1;rounded=0;" parent="1" edge="1">
          <mxGeometry width="50" height="50" relative="1" as="geometry">
            <mxPoint x="284" y="-1338" as="sourcePoint" />
            <mxPoint x="363" y="-1338" as="targetPoint" />
          </mxGeometry>
        </mxCell>
        <mxCell id="Pxrlkx7MvBpBombPw6jG-12" value="" style="endArrow=classic;html=1;rounded=0;exitX=1;exitY=0.25;exitDx=0;exitDy=0;" parent="1" source="Pxrlkx7MvBpBombPw6jG-6" edge="1">
          <mxGeometry width="50" height="50" relative="1" as="geometry">
            <mxPoint x="679" y="-1248" as="sourcePoint" />
            <mxPoint x="563" y="-1401" as="targetPoint" />
          </mxGeometry>
        </mxCell>
        <mxCell id="Pxrlkx7MvBpBombPw6jG-13" value="" style="endArrow=classic;html=1;rounded=0;exitX=1;exitY=0.5;exitDx=0;exitDy=0;entryX=0;entryY=0.5;entryDx=0;entryDy=0;" parent="1" source="Pxrlkx7MvBpBombPw6jG-6" target="Pxrlkx7MvBpBombPw6jG-9" edge="1">
          <mxGeometry width="50" height="50" relative="1" as="geometry">
            <mxPoint x="679" y="-1248" as="sourcePoint" />
            <mxPoint x="729" y="-1298" as="targetPoint" />
          </mxGeometry>
        </mxCell>
        <mxCell id="Pxrlkx7MvBpBombPw6jG-14" value="stripe&lt;br&gt;converter" style="ellipse;whiteSpace=wrap;html=1;aspect=fixed;" parent="1" vertex="1">
          <mxGeometry x="778" y="-1309.5" width="67" height="67" as="geometry" />
        </mxCell>
        <mxCell id="Pxrlkx7MvBpBombPw6jG-15" value="" style="endArrow=classic;html=1;rounded=0;exitX=1;exitY=0.5;exitDx=0;exitDy=0;entryX=0;entryY=0.47;entryDx=0;entryDy=0;entryPerimeter=0;" parent="1" source="Pxrlkx7MvBpBombPw6jG-9" target="Pxrlkx7MvBpBombPw6jG-14" edge="1">
          <mxGeometry width="50" height="50" relative="1" as="geometry">
            <mxPoint x="679" y="-1248" as="sourcePoint" />
            <mxPoint x="729" y="-1298" as="targetPoint" />
          </mxGeometry>
        </mxCell>
        <mxCell id="Pxrlkx7MvBpBombPw6jG-16" value="customize&lt;br&gt;converter" style="ellipse;whiteSpace=wrap;html=1;aspect=fixed;" parent="1" vertex="1">
          <mxGeometry x="761" y="-1434.5" width="73" height="73" as="geometry" />
        </mxCell>
        <mxCell id="Pxrlkx7MvBpBombPw6jG-17" value="" style="endArrow=classic;html=1;rounded=0;entryX=0;entryY=0.5;entryDx=0;entryDy=0;exitX=1;exitY=0.5;exitDx=0;exitDy=0;" parent="1" source="Pxrlkx7MvBpBombPw6jG-7" target="Pxrlkx7MvBpBombPw6jG-16" edge="1">
          <mxGeometry width="50" height="50" relative="1" as="geometry">
            <mxPoint x="679" y="-1248" as="sourcePoint" />
            <mxPoint x="729" y="-1298" as="targetPoint" />
          </mxGeometry>
        </mxCell>
        <mxCell id="Pxrlkx7MvBpBombPw6jG-18" value="Service Payment" style="text;html=1;align=center;verticalAlign=middle;resizable=0;points=[];autosize=1;strokeColor=none;fillColor=none;" parent="1" vertex="1">
          <mxGeometry x="283" y="-1491" width="109" height="26" as="geometry" />
        </mxCell>
        <mxCell id="Pxrlkx7MvBpBombPw6jG-19" value="" style="endArrow=classic;html=1;rounded=0;exitX=1;exitY=0.41;exitDx=0;exitDy=0;exitPerimeter=0;entryX=0.025;entryY=0.617;entryDx=0;entryDy=0;entryPerimeter=0;" parent="1" source="Pxrlkx7MvBpBombPw6jG-14" target="Pxrlkx7MvBpBombPw6jG-8" edge="1">
          <mxGeometry width="50" height="50" relative="1" as="geometry">
            <mxPoint x="679" y="-1248" as="sourcePoint" />
            <mxPoint x="729" y="-1298" as="targetPoint" />
          </mxGeometry>
        </mxCell>
        <mxCell id="Pxrlkx7MvBpBombPw6jG-20" value="" style="endArrow=classic;html=1;rounded=0;exitX=1;exitY=0.5;exitDx=0;exitDy=0;entryX=0;entryY=0.25;entryDx=0;entryDy=0;" parent="1" source="Pxrlkx7MvBpBombPw6jG-16" target="Pxrlkx7MvBpBombPw6jG-8" edge="1">
          <mxGeometry width="50" height="50" relative="1" as="geometry">
            <mxPoint x="679" y="-1248" as="sourcePoint" />
            <mxPoint x="729" y="-1298" as="targetPoint" />
          </mxGeometry>
        </mxCell>
        <mxCell id="Pxrlkx7MvBpBombPw6jG-21" value="CAD" style="text;html=1;align=center;verticalAlign=middle;resizable=0;points=[];autosize=1;strokeColor=none;fillColor=none;" parent="1" vertex="1">
          <mxGeometry x="250" y="-1408" width="43" height="26" as="geometry" />
        </mxCell>
        <mxCell id="Pxrlkx7MvBpBombPw6jG-22" value="USD" style="text;html=1;align=center;verticalAlign=middle;resizable=0;points=[];autosize=1;strokeColor=none;fillColor=none;" parent="1" vertex="1">
          <mxGeometry x="1024.5" y="-1408" width="43" height="26" as="geometry" />
        </mxCell>
        <mxCell id="lEKl0hvWrcSFVDOUfLaM-1" value="Delay 3 days" style="text;html=1;align=center;verticalAlign=middle;resizable=0;points=[];autosize=1;strokeColor=none;fillColor=none;" vertex="1" parent="1">
          <mxGeometry x="873" y="-1313" width="87" height="26" as="geometry" />
        </mxCell>
        <mxCell id="lEKl0hvWrcSFVDOUfLaM-2" value="Delay 3 days" style="text;html=1;align=center;verticalAlign=middle;resizable=0;points=[];autosize=1;strokeColor=none;fillColor=none;" vertex="1" parent="1">
          <mxGeometry x="873" y="-1394" width="87" height="26" as="geometry" />
        </mxCell>
        <mxCell id="lEKl0hvWrcSFVDOUfLaM-5" value="" style="group" vertex="1" connectable="0" parent="1">
          <mxGeometry x="858" y="-1280" width="157" height="123" as="geometry" />
        </mxCell>
        <mxCell id="lEKl0hvWrcSFVDOUfLaM-3" value="Currency : CAD&amp;nbsp;&lt;br&gt;amount :&amp;nbsp; 135" style="rounded=0;whiteSpace=wrap;html=1;" vertex="1" parent="lEKl0hvWrcSFVDOUfLaM-5">
          <mxGeometry y="24" width="157" height="99" as="geometry" />
        </mxCell>
        <mxCell id="lEKl0hvWrcSFVDOUfLaM-4" value="Transaction" style="text;html=1;align=center;verticalAlign=middle;resizable=0;points=[];autosize=1;strokeColor=none;fillColor=none;" vertex="1" parent="lEKl0hvWrcSFVDOUfLaM-5">
          <mxGeometry width="80" height="26" as="geometry" />
        </mxCell>
      </root>
    </mxGraphModel>
  </diagram>
</mxfile>
